<?xml version="1.0" standalone="no"?>
<!DOCTYPE svg PUBLIC "-//W3C//DTD SVG 20010904//EN"
 "http://www.w3.org/TR/2001/REC-SVG-20010904/DTD/svg10.dtd">
<svg version="1.0" xmlns="http://www.w3.org/2000/svg"
 width="512.000000pt" height="512.000000pt" viewBox="0 0 512.000000 512.000000"
 preserveAspectRatio="xMidYMid meet">
<metadata>
Created by potrace 1.11, written by Peter Selinger 2001-2013
</metadata>
<g transform="translate(0.000000,512.000000) scale(0.100000,-0.100000)"
fill="#000000" stroke="none">
<path d="M2266 5111 c-3 -5 -32 -12 -63 -15 -180 -21 -482 -105 -638 -176
-361 -165 -574 -310 -822 -561 -245 -247 -381 -449 -543 -804 -71 -156 -155
-458 -176 -638 -3 -31 -10 -60 -15 -63 -12 -7 -12 -581 0 -588 5 -3 12 -32 15
-63 8 -65 28 -171 50 -259 212 -860 863 -1554 1711 -1825 141 -45 302 -82 416
-95 33 -4 62 -11 65 -15 7 -12 581 -12 588 0 3 4 32 11 65 15 126 14 284 51
448 105 153 51 219 79 371 156 108 56 329 194 365 229 7 6 41 34 77 61 36 28
121 106 190 175 366 366 600 805 704 1318 8 40 18 100 22 133 4 33 11 62 15
65 12 7 12 581 0 588 -4 3 -11 32 -15 65 -47 415 -251 884 -545 1251 -397 496
-1031 855 -1634 926 -31 3 -60 10 -63 15 -3 5 -135 9 -294 9 -159 0 -291 -4
-294 -9z m564 -166 c287 -67 515 -264 593 -510 56 -179 47 -560 -17 -669 -31
-54 -50 -69 -74 -62 -16 5 -20 20 -26 83 -3 42 -6 98 -6 125 0 35 -4 48 -15
48 -30 0 -39 -42 -39 -199 l-1 -154 62 -21 c34 -12 71 -30 82 -40 30 -27 27
-75 -7 -122 -41 -56 -87 -88 -209 -145 -97 -45 -116 -59 -210 -152 l-104 -102
-77 -7 c-42 -3 -152 -7 -243 -7 -234 -1 -299 20 -379 124 -47 61 -97 95 -215
145 -101 43 -183 91 -214 124 -28 30 -40 111 -21 145 6 13 32 32 56 42 24 11
49 30 56 42 7 14 14 101 18 232 6 178 10 218 27 260 11 28 45 112 76 187 31
75 59 153 63 172 16 88 -58 8 -139 -149 -70 -136 -76 -164 -83 -411 -6 -198
-9 -224 -24 -224 -16 0 -67 90 -89 159 -16 50 -14 453 3 516 37 141 175 317
343 439 82 58 219 113 325 130 129 20 404 20 488 1z m-813 -1845 c78 -57 108
-115 133 -255 27 -150 60 -214 135 -256 76 -44 266 -61 404 -38 87 15 151 50
184 102 31 48 67 154 67 199 0 43 20 107 47 151 31 49 100 99 133 95 l25 -3
-2 -130 c-2 -161 -24 -292 -58 -351 -34 -58 -131 -178 -193 -238 -44 -43 -59
-51 -119 -62 -37 -8 -138 -17 -223 -20 -228 -10 -292 13 -406 142 -152 173
-182 248 -204 515 -16 185 -4 208 77 149z m-924 -106 c50 -25 83 -61 160 -169
138 -196 278 -310 568 -461 100 -52 208 -109 238 -126 153 -84 400 -224 433
-244 21 -13 39 -24 42 -24 2 0 54 -29 116 -65 62 -36 114 -65 116 -65 2 0 33
-18 69 -40 36 -22 68 -40 70 -40 3 0 22 -11 43 -23 86 -54 418 -224 497 -255
127 -49 336 -83 595 -96 266 -14 373 -39 442 -106 l48 -46 0 -75 c0 -92 -19
-126 -92 -168 -39 -23 -66 -31 -102 -31 -53 0 -44 7 -148 -119 -73 -88 -123
-114 -209 -108 -113 7 -196 58 -427 263 -118 105 -218 172 -292 195 -54 16
-286 127 -385 184 -22 12 -71 39 -108 59 -37 20 -84 46 -105 58 -345 194 -625
337 -926 472 -292 132 -650 250 -876 290 -52 10 -122 22 -155 28 -176 32 -268
138 -230 266 32 106 116 198 215 235 34 13 55 31 84 72 48 67 91 101 165 132
66 27 110 29 154 7z m1235 -26 c20 -20 15 -83 -9 -104 -21 -19 -21 -18 -40 5
-23 28 -24 59 -3 89 17 25 34 28 52 10z m128 -33 c3 -19 3 -46 0 -61 -5 -20
-12 -25 -34 -22 -26 3 -27 6 -25 53 1 33 7 53 19 62 23 17 32 9 40 -32z m234
-17 c0 -39 -17 -68 -39 -68 -43 0 -50 53 -15 108 15 23 16 23 35 6 10 -9 19
-30 19 -46z m110 33 c16 -39 1 -85 -28 -89 -17 -3 -23 4 -30 30 -19 71 32 122
58 59z m-231 -5 c13 -15 18 -72 8 -82 -7 -7 -56 -9 -61 -3 -6 6 -8 31 -7 67 1
27 5 32 25 32 13 0 29 -6 35 -14z m1665 -45 c67 -30 116 -81 116 -119 0 -27
74 -102 157 -159 137 -93 182 -271 97 -373 -46 -54 -83 -64 -374 -105 -174
-24 -302 -53 -550 -125 -110 -31 -351 -115 -455 -158 -166 -68 -206 -82 -230
-82 -27 0 -293 146 -332 182 -19 17 -21 24 -10 36 13 16 258 137 492 242 427
192 579 298 756 526 114 147 136 164 210 164 44 0 76 -7 123 -29z m-1900 -224
c8 -12 8 -22 0 -34 -17 -27 -33 -27 -45 1 -9 20 -9 29 1 41 15 18 29 16 44 -8z
m104 14 c20 -12 12 -85 -10 -89 -24 -5 -41 39 -28 73 10 27 17 30 38 16z m150
-32 c4 -49 -34 -97 -61 -77 -23 17 -34 83 -17 103 8 10 25 15 44 13 28 -3 31
-7 34 -39z m161 19 c11 -31 2 -58 -25 -70 -29 -14 -54 4 -54 38 0 48 63 74 79
32z m-465 -1031 c93 -57 171 -108 173 -113 3 -10 -57 -40 -217 -109 -41 -18
-95 -41 -120 -53 -86 -39 -296 -130 -360 -157 -99 -41 -183 -90 -320 -185
-181 -125 -235 -157 -328 -188 -82 -29 -173 -29 -227 -1 -72 38 -102 74 -150
182 -14 30 -29 43 -84 68 -108 50 -112 52 -141 86 -66 75 -59 175 15 241 80
70 113 76 399 69 428 -10 583 10 831 108 22 9 48 18 57 22 10 3 75 34 145 68
71 35 135 64 143 64 8 1 91 -45 184 -102z"/>
<path d="M2104 4018 c-92 -63 -148 -203 -126 -320 13 -71 31 -101 75 -129 90
-57 281 42 348 179 30 62 32 153 4 201 -11 19 -42 49 -69 68 -43 29 -55 33
-116 33 -60 0 -73 -4 -116 -32z"/>
<path d="M2805 4033 c-40 -20 -93 -71 -111 -105 -24 -46 -17 -100 24 -179 46
-90 119 -165 176 -180 85 -23 167 6 216 78 21 30 22 40 16 112 -11 131 -52
214 -131 265 -31 21 -51 26 -100 26 -34 -1 -73 -7 -90 -17z"/>
<path d="M2514 3624 c-50 -85 -108 -304 -84 -319 6 -3 25 3 44 14 39 25 80 27
120 6 15 -8 32 -15 37 -15 31 0 -23 299 -62 346 -18 22 -26 17 -55 -32z"/>
<path d="M899 2487 c-27 -39 -13 -54 77 -86 47 -17 92 -31 100 -31 18 0 173
-47 196 -60 10 -6 28 -10 40 -10 23 1 23 1 3 16 -34 28 -157 81 -264 114 -81
26 -105 37 -113 56 -14 29 -19 29 -39 1z"/>
<path d="M3477 1244 c-8 -9 11 -44 24 -44 19 0 116 -68 175 -123 123 -114 231
-187 276 -187 40 0 98 26 98 44 0 24 -14 26 -74 14 -53 -11 -60 -11 -99 10
-24 12 -55 34 -69 47 -100 92 -319 251 -331 239z"/>
<path d="M4214 1198 c-7 -12 21 -38 42 -38 6 0 17 6 23 14 10 12 8 17 -8 25
-26 14 -48 14 -57 -1z"/>
<path d="M4188 2390 c-17 -40 -52 -59 -160 -84 -159 -38 -195 -49 -218 -67
-23 -17 -23 -19 -5 -19 22 0 118 21 210 46 33 9 82 19 109 23 74 12 109 59 87
116 -7 18 -10 16 -23 -15z"/>
<path d="M759 1341 c-19 -16 -22 -22 -12 -32 19 -19 68 1 68 26 0 27 -27 30
-56 6z"/>
<path d="M935 1160 c-4 -6 1 -45 10 -86 13 -57 22 -78 41 -91 44 -29 157 2
172 47 4 10 -8 11 -57 6 -56 -6 -63 -5 -84 18 -12 13 -33 45 -45 70 -25 49
-27 52 -37 36z"/>
</g>
</svg>
