<?xml version="1.0" standalone="no"?>
<!DOCTYPE svg PUBLIC "-//W3C//DTD SVG 20010904//EN"
 "http://www.w3.org/TR/2001/REC-SVG-20010904/DTD/svg10.dtd">
<svg version="1.0" xmlns="http://www.w3.org/2000/svg"
 width="96.000000pt" height="96.000000pt" viewBox="0 0 96.000000 96.000000"
 preserveAspectRatio="xMidYMid meet">
<metadata>
Created by potrace 1.11, written by Peter Selinger 2001-2013
</metadata>
<g transform="translate(0.000000,96.000000) scale(0.100000,-0.100000)"
fill="#000000" stroke="none">
<path d="M383 863 c-55 -19 -126 -83 -153 -139 -12 -25 -25 -71 -27 -102 -11
-123 91 -324 274 -541 2 -3 10 5 18 17 9 11 21 27 28 34 63 64 176 250 209
344 48 135 30 233 -58 321 -78 78 -183 102 -291 66z m145 -81 c31 -24 38 -80
15 -110 -10 -12 -34 -25 -53 -28 -46 -8 -79 18 -87 68 -5 31 -1 40 22 62 32
30 70 33 103 8z m62 -242 c63 -32 60 -64 -9 -110 -52 -34 -151 -35 -202 0 -67
45 -72 78 -15 107 71 37 157 38 226 3z"/>
</g>
</svg>
